HIERARCHY
ROOT Hips
{
	OFFSET 0.00000 0.00000 0.00000
	CHANNELS 6 Xposition Yposition Zposition Zrotation Yrotation Xrotation 
	JOINT LHipJoint
	{
		OFFSET 0 0 0
		CHANNELS 3 Zrotation Yrotation Xrotation
		JOINT LeftUpLeg
		{
			OFFSET 1.54859 -1.61379 0.86856
			CHANNELS 3 Zrotation Yrotation Xrotation
			JOINT LeftLeg
			{
				OFFSET 2.25087 -6.18423 0.00000
				CHANNELS 3 Zrotation Yrotation Xrotation
				JOINT LeftFoot
				{
					OFFSET 2.40328 -6.60297 0.00000
					CHANNELS 3 Zrotation Yrotation Xrotation
					JOINT LeftToeBase
					{
						OFFSET 0.17435 -0.47901 2.02453
						CHANNELS 3 Zrotation Yrotation Xrotation
						End Site
						{
							OFFSET 0.00000 -0.00000 1.04844
						}
					}
				}
			}
		}
	}
	JOINT RHipJoint
	{
		OFFSET 0 0 0
		CHANNELS 3 Zrotation Yrotation Xrotation
		JOINT RightUpLeg
		{
			OFFSET -1.54669 -1.61379 0.86856
			CHANNELS 3 Zrotation Yrotation Xrotation
			JOINT RightLeg
			{
				OFFSET -2.28132 -6.26789 0.00000
				CHANNELS 3 Zrotation Yrotation Xrotation
				JOINT RightFoot
				{
					OFFSET -2.51636 -6.91365 0.00000
					CHANNELS 3 Zrotation Yrotation Xrotation
					JOINT RightToeBase
					{
						OFFSET -0.15124 -0.41552 2.21090
						CHANNELS 3 Zrotation Yrotation Xrotation
						End Site
						{
							OFFSET -0.00000 -0.00000 1.13399
						}
					}
				}
			}
		}
	}
	JOINT LowerBack
	{
		OFFSET 0 0 0
		CHANNELS 3 Zrotation Yrotation Xrotation
		JOINT Spine
		{
			OFFSET -0.04287 2.26161 -0.25690
			CHANNELS 3 Zrotation Yrotation Xrotation
			JOINT Spine1
			{
				OFFSET 0.02248 2.28395 -0.10140
				CHANNELS 3 Zrotation Yrotation Xrotation
				JOINT Neck
				{
					OFFSET 0 0 0
					CHANNELS 3 Zrotation Yrotation Xrotation
					JOINT Neck1
					{
						OFFSET -0.11644 1.38496 0.11345
						CHANNELS 3 Zrotation Yrotation Xrotation
						JOINT Head
						{
							OFFSET 0.29383 1.36600 0.06642
							CHANNELS 3 Zrotation Yrotation Xrotation
							End Site
							{
								OFFSET 0.11075 1.41395 -0.00294
							}
						}
					}
				}
				JOINT LeftShoulder
				{
					OFFSET 0 0 0
					CHANNELS 3 Zrotation Yrotation Xrotation
					JOINT LeftArm
					{
						OFFSET 3.51628 0.59542 -0.30346
						CHANNELS 3 Zrotation Yrotation Xrotation
						JOINT LeftForeArm
						{
							OFFSET 4.76405 -0.00000 0.00000
							CHANNELS 3 Zrotation Yrotation Xrotation
							JOINT LeftHand
							{
								OFFSET 3.13759 -0.00000 -0.00000
								CHANNELS 3 Zrotation Yrotation Xrotation
								JOINT LeftFingerBase
								{
									OFFSET 0 0 0
									CHANNELS 3 Zrotation Yrotation Xrotation
									JOINT LeftHandIndex1
									{
										OFFSET 0.73226 -0.00000 -0.00000
										CHANNELS 3 Zrotation Yrotation Xrotation
										End Site
										{
											OFFSET 0.59037 -0.00000 -0.00000
										}
									}
								}
								JOINT LThumb
								{
									OFFSET 0 0 0
									CHANNELS 3 Zrotation Yrotation Xrotation
									End Site
									{
										OFFSET 0.59938 -0.00000 0.59938
									}
								}
							}
						}
					}
				}
				JOINT RightShoulder
				{
					OFFSET 0 0 0
					CHANNELS 3 Zrotation Yrotation Xrotation
					JOINT RightArm
					{
						OFFSET -3.30990 0.84213 -0.36430
						CHANNELS 3 Zrotation Yrotation Xrotation
						JOINT RightForeArm
						{
							OFFSET -5.10161 -0.00000 -0.00000
							CHANNELS 3 Zrotation Yrotation Xrotation
							JOINT RightHand
							{
								OFFSET -3.23267 -0.00000 -0.00000
								CHANNELS 3 Zrotation Yrotation Xrotation
								JOINT RightFingerBase
								{
									OFFSET 0 0 0
									CHANNELS 3 Zrotation Yrotation Xrotation
									JOINT RightHandIndex1
									{
										OFFSET -0.70200 -0.00000 -0.00000
										CHANNELS 3 Zrotation Yrotation Xrotation
										End Site
										{
											OFFSET -0.56597 -0.00000 -0.00000
										}
									}
								}
								JOINT RThumb
								{
									OFFSET 0 0 0
									CHANNELS 3 Zrotation Yrotation Xrotation
									End Site
									{
										OFFSET -0.57461 -0.00000 0.57461
									}
								}
							}
						}
					}
				}
			}
		}
	}
}
MOTION
Frames: 15
Frame Time: .0083333
-18.8278 13.8976 -1.6216 -193.4510 59.1344 -165.8920 0.0000 0.0000 0.0000 -14.5683 5.1616 5.6230 1.7884 8.4107 23.9685 -0.0430 3.7421 -2.1152 4.0178 -12.1841 -36.3864 0.0000 0.0000 0.0000 20.2208 11.7045 -82.7126 -16.4446 -19.6942 79.5537 -0.8554 -0.3244 -17.6013 -1.7817 8.3957 -23.9224 -11.8125 -2.0917 24.6703 -3.1288 -3.9719 10.3152 4.2286 -1.6463 -1.4655 -15.0415 -8.4543 -2.1397 31.4944 -4.8392 -26.8859 14.1412 -2.5692 -5.7111 0.0000 0.0000 0.0000 -76.9042 -48.9805 15.4958 31.9454 -42.5036 -12.7039 -0.0000 0.0000 -4.1581 38.5040 29.0627 21.1291 -7.1250 0.0000 -0.0000 10.4133 65.0758 5.0806 0.0000 0.0000 0.0000 81.5348 6.4892 16.5904 -29.5587 40.5121 -11.1219 0.0000 -0.0000 -18.2247 -41.7574 29.2157 -23.5456 7.1250 -0.0000 -0.0000 -6.1575 6.6887 -6.8705
-18.4070 13.9411 -1.8826 -194.8000 60.0932 -166.9850 0.0000 0.0000 0.0000 -16.0775 3.7799 9.0614 1.4239 7.5459 21.3432 -0.1102 6.5360 0.6663 4.7035 -13.0419 -39.5254 0.0000 0.0000 0.0000 22.0606 12.2313 -82.5367 -14.9166 -19.3688 74.9852 -0.8433 -0.0348 -17.3731 -1.5807 7.9318 -22.5071 -12.1801 -1.8365 24.2714 -2.9151 -3.6741 10.3673 4.5777 -1.5440 -1.2032 -15.5321 -8.2893 -2.0577 30.7111 -4.8169 -26.9411 13.9174 -2.4897 -5.7844 0.0000 -0.0000 0.0000 -77.1997 -47.6850 15.8112 33.4705 -43.6886 -13.7460 -0.0000 0.0000 -1.9991 36.4695 27.1655 18.6476 -7.1250 0.0000 -0.0000 7.9042 62.3529 3.3452 0.0000 -0.0000 0.0000 80.4729 6.3764 17.0578 -29.5598 40.5131 -11.1225 0.0000 -0.0000 -18.8660 -43.7740 28.6903 -24.7004 7.1250 -0.0000 -0.0000 -7.4058 6.9028 -8.3081
-17.9884 13.9700 -2.1362 -196.5300 60.9672 -168.6520 0.0000 0.0000 0.0000 -17.6798 2.8160 11.8786 1.2204 7.0071 19.7365 -0.0286 6.8600 4.0729 5.4402 -13.8630 -42.6914 0.0000 0.0000 0.0000 24.1384 12.2422 -81.9715 -13.5446 -18.9700 70.8087 -0.8281 0.3004 -17.1014 -1.6501 8.0958 -23.0053 -12.9879 -1.3809 23.9769 -2.4322 -3.1893 10.5205 5.4280 -1.3781 -0.8485 -16.3270 -8.1683 -2.0965 29.7415 -4.9757 -26.7611 13.6333 -2.4607 -5.7137 0.0000 -0.0000 0.0000 -78.3510 -46.6539 16.9969 35.1201 -44.8977 -14.8981 -0.0000 0.0000 -1.5874 35.2167 25.3847 16.8357 -7.1250 0.0000 -0.0000 6.6108 60.0070 2.4272 0.0000 -0.0000 0.0000 78.8108 6.5081 16.8186 -29.6704 40.6092 -11.1945 0.0000 -0.0000 -21.0229 -42.5516 28.8214 -23.8715 7.1250 -0.0000 -0.0000 -6.6980 6.5537 -7.4673
-17.5833 13.9605 -2.3831 -198.7090 61.7057 -170.8310 0.0000 0.0000 0.0000 -19.3420 2.2149 13.9510 1.1814 6.8981 19.4138 0.1291 5.1361 6.8489 5.4681 -13.8923 -42.8078 0.0000 0.0000 0.0000 26.0530 11.9045 -81.1777 -12.4606 -18.5786 67.4414 -0.7505 0.1629 -16.3198 -1.7781 8.3878 -23.8983 -12.2415 -1.4622 24.0940 -3.5907 -3.1689 10.4642 3.7540 -1.2694 -1.1255 -15.1989 -8.0297 -1.7972 29.0969 -4.7964 -26.9136 13.1781 -2.4470 -5.9688 -0.0000 0.0000 0.0000 -76.3644 -44.9717 18.2297 37.2137 -46.3297 -16.3944 -0.0000 0.0000 -3.1654 34.0907 25.1506 16.0476 -7.1250 0.0000 -0.0000 5.2754 59.4531 1.8652 -0.0000 0.0000 0.0000 80.0189 6.3466 16.7886 -29.6734 40.6118 -11.1964 0.0000 -0.0000 -21.5530 -42.6978 28.0141 -23.4311 7.1250 -0.0000 -0.0000 -6.9876 5.6834 -7.7003
-17.1850 13.9501 -2.6263 -201.2720 62.3697 -173.2560 0.0000 0.0000 0.0000 -21.0520 2.0981 14.6943 1.3590 7.3790 20.8432 0.2197 2.1216 8.3699 5.4089 -13.8300 -42.5607 0.0000 0.0000 0.0000 27.3776 11.4994 -80.1850 -11.6304 -18.2300 64.8123 -0.7431 2.5686 -15.6171 -1.2511 7.0914 -19.9863 -12.5197 -1.2646 23.7089 -3.8744 -2.8962 10.5702 3.5225 -1.1463 -0.8470 -15.2468 -7.9042 -1.5863 28.4181 -4.7727 -27.0063 12.9297 -2.4086 -6.0916 0.0000 0.0000 0.0000 -76.0458 -43.6210 19.5934 39.7806 -47.9393 -18.2761 -0.0000 0.0000 -5.1800 32.5875 25.6460 15.4647 -7.1250 0.0000 -0.0000 3.3530 59.6237 1.1980 0.0000 0.0000 0.0000 79.5613 6.7902 16.6199 -29.5172 40.4760 -11.0949 0.0000 -0.0000 -22.2290 -42.2080 27.3349 -22.6110 7.1250 -0.0000 -0.0000 -6.8860 4.7052 -7.4800
-16.7722 13.9176 -2.8501 -204.0210 62.5280 -176.3700 0.0000 0.0000 0.0000 -22.2264 2.8911 14.6806 1.7855 8.4042 23.9488 0.1978 -1.8521 9.2927 5.5814 -14.0100 -43.2777 0.0000 0.0000 0.0000 28.4195 10.5773 -78.6578 -11.0662 -17.9673 62.9962 -0.6191 3.3620 -14.0999 -0.7708 5.6061 -15.6456 -13.1183 -1.0928 23.8665 -4.0542 -2.7534 10.7531 3.6226 -1.0809 -0.6872 -15.3631 -7.9458 -1.4581 28.0357 -4.9101 -27.2055 12.8146 -2.4532 -6.1661 0.0000 0.0000 0.0000 -75.7180 -42.1348 20.6563 42.7706 -49.6284 -20.5258 -0.0000 0.0000 -7.5436 30.3734 25.9005 14.3594 -7.1250 0.0000 -0.0000 0.6562 59.3508 0.2300 0.0000 0.0000 0.0000 78.9941 7.3837 16.5766 -29.1621 40.1643 -10.8651 0.0000 -0.0000 -22.7229 -41.6735 26.8492 -21.9014 7.1250 -0.0000 -0.0000 -6.7049 3.9383 -7.1976
-16.3571 13.8799 -3.0632 -206.3960 62.4819 -179.2300 0.0000 0.0000 0.0000 -22.8963 4.1836 13.8651 2.4580 9.7612 28.2069 0.1012 -5.1665 10.0008 5.5803 -14.0089 -43.2730 0.0000 0.0000 0.0000 29.3912 9.4435 -76.8737 -10.7277 -17.7992 61.8941 -0.5226 3.8886 -12.8832 -0.2124 2.9673 -8.1876 -13.8492 -0.8886 24.1227 -3.9677 -2.6137 10.9315 4.0878 -1.0341 -0.5518 -15.8182 -8.0446 -1.4588 27.8070 -5.1218 -27.3680 12.8147 -2.5043 -6.1589 -0.0000 0.0000 0.0000 -75.8076 -40.8011 21.4306 45.8971 -51.2005 -22.9358 -0.0000 0.0000 -10.0540 27.8913 25.8639 13.0012 -7.1250 0.0000 -0.0000 -2.1979 58.7116 -0.7370 -0.0000 0.0000 0.0000 78.0612 8.1906 16.6263 -28.6336 39.6930 -10.5259 0.0000 -0.0000 -23.0602 -41.2409 26.4619 -21.3385 7.1250 -0.0000 -0.0000 -6.5532 3.3280 -6.9672
-15.9492 13.8520 -3.2718 -207.9320 62.6069 -180.9910 0.0000 0.0000 0.0000 -23.1204 5.4711 12.2985 3.3841 11.2922 33.2719 0.0323 -6.6631 10.2672 5.0884 -13.4826 -41.2031 0.0000 0.0000 0.0000 30.3650 8.5736 -74.9005 -10.5787 -17.7227 61.4055 -0.3652 3.8333 -10.7441 -2.5955 -10.0095 29.0076 -14.1679 -0.6607 23.8778 -3.7891 -2.3171 11.0694 4.3832 -0.9257 -0.2837 -16.3957 -8.1106 -1.3657 27.6933 -5.3166 -27.3995 12.8796 -2.5538 -6.1183 -0.0000 0.0000 0.0000 -75.9341 -39.7674 22.2257 49.0564 -52.6078 -25.4226 -0.0000 0.0000 -12.4610 25.7111 25.6447 11.7714 -7.1250 0.0000 -0.0000 -4.5633 57.9719 -1.4506 -0.0000 0.0000 0.0000 77.1224 9.2087 16.4822 -28.1073 39.2148 -10.1914 0.0000 -0.0000 -23.1742 -40.4768 25.6740 -20.2907 7.1250 -0.0000 -0.0000 -6.3013 2.1379 -6.5713
-15.5324 13.8407 -3.4719 -208.5280 62.7299 -181.5860 0.0000 0.0000 0.0000 -22.7266 6.5770 10.1654 4.5782 12.8925 38.9673 -0.0090 -6.9888 9.7521 4.5211 -12.8233 -38.7106 0.0000 0.0000 0.0000 31.4105 7.9159 -72.6186 -10.6449 -17.7569 61.6230 -0.7873 1.9125 -16.2254 -2.4672 -9.7781 28.2610 -13.4452 -0.6352 23.7245 -4.0527 -2.2054 10.7837 3.6790 -0.8225 -0.6359 -16.3073 -8.1412 -0.9871 27.6680 -5.4244 -27.3916 12.8672 -2.6455 -6.1658 -0.0000 0.0000 0.0000 -75.0820 -38.1498 22.9868 52.6869 -54.0233 -28.3345 -0.0000 0.0000 -14.4441 23.7936 25.6789 10.8167 -7.1250 0.0000 -0.0000 -6.6849 57.5758 -2.0645 -0.0000 0.0000 0.0000 77.0976 9.6891 16.2978 -27.5980 38.7435 -9.8711 0.0000 -0.0000 -22.6846 -39.8044 25.5469 -19.7664 7.1250 -0.0000 -0.0000 -5.9428 1.7572 -6.1550
-15.0959 13.8385 -3.6623 -208.6850 62.8102 -181.7760 0.0000 0.0000 0.0000 -21.9958 7.5310 7.7240 6.0393 14.4663 45.1391 -0.0346 -6.5602 8.4204 4.3232 -12.5785 -37.8106 0.0000 0.0000 0.0000 31.3310 7.7460 -70.0239 -10.7402 -17.8056 61.9350 -1.3272 -4.1248 -23.5976 -0.0624 -1.6115 4.4332 -12.9843 -0.5152 23.1669 -3.8910 -1.8953 10.8087 3.5246 -0.6886 -0.4161 -16.7710 -8.2291 -1.1660 27.5683 -5.6579 -27.0818 12.8597 -2.7112 -5.9608 -0.0000 -0.0000 0.0000 -74.8243 -37.0314 23.5326 57.0076 -55.4584 -31.8635 -0.0000 0.0000 -15.9977 22.1068 26.2039 10.1686 -7.1250 0.0000 -0.0000 -8.7540 57.7424 -2.7446 -0.0000 -0.0000 0.0000 76.3668 10.7049 15.8636 -26.9724 38.1529 -9.4821 0.0000 -0.0000 -21.9870 -40.1792 26.6755 -20.7618 7.1250 -0.0000 -0.0000 -5.8981 3.1913 -6.2498
-14.6476 13.8275 -3.8384 -208.4950 62.4185 -181.8530 0.0000 0.0000 0.0000 -20.9290 7.8965 5.3592 7.7681 15.9460 51.7229 -0.0176 -5.1917 6.8115 4.3218 -12.5767 -37.8040 0.0000 0.0000 0.0000 31.0276 7.4334 -67.4389 -10.9004 -17.8860 62.4577 -1.4760 -3.7248 -24.5520 -0.9867 -6.3223 17.7226 -12.5035 -0.4805 22.9955 -3.6604 -1.7352 10.8429 3.4739 -0.6126 -0.3476 -17.0980 -8.3698 -1.2496 27.4294 -5.9238 -27.0221 12.8373 -2.8020 -5.8541 -0.0000 0.0000 0.0000 -74.6237 -35.9902 23.9050 61.6279 -56.7284 -35.6989 -0.0000 0.0000 -17.2551 20.5695 26.6936 9.5688 -7.1250 0.0000 -0.0000 -10.6537 57.8993 -3.3888 -0.0000 0.0000 0.0000 75.8398 11.5971 15.6228 -26.5128 37.7107 -9.1996 0.0000 -0.0000 -21.9459 -40.5419 27.1953 -21.3513 7.1250 -0.0000 -0.0000 -5.9810 3.9194 -6.4099
-14.2066 13.8089 -4.0064 -208.3250 61.9812 -181.7500 0.0000 0.0000 0.0000 -19.8389 7.8164 2.5147 9.7627 17.2742 58.6922 0.0157 -3.1389 5.2307 4.2132 -12.4388 -37.3025 0.0000 0.0000 0.0000 30.6132 7.3923 -65.3329 -11.1105 -17.9887 63.1398 -2.0612 -2.7714 -28.2340 -0.7616 -5.5732 15.5510 -12.0228 -0.4631 22.8023 -3.4669 -1.6424 10.6945 3.3988 -0.5621 -0.4656 -17.3414 -8.5718 -0.8833 27.5026 -6.2381 -27.3438 12.9465 -2.9635 -5.9242 -0.0000 0.0000 0.0000 -74.7247 -35.0751 24.1740 66.0526 -57.7181 -39.4198 -0.0000 0.0000 -17.9662 18.7062 26.9591 8.7272 -7.1250 0.0000 -0.0000 -12.7841 57.7557 -4.0355 -0.0000 0.0000 0.0000 75.4810 12.1889 15.7401 -26.3057 37.5090 -9.0731 0.0000 -0.0000 -22.8706 -39.5095 26.4559 -20.1720 7.1250 -0.0000 -0.0000 -5.5663 2.7041 -5.8498
-13.7867 13.7827 -4.1805 -208.3380 61.9298 -181.6520 0.0000 0.0000 0.0000 -18.8987 7.8396 -0.9907 11.9842 18.3840 65.9387 0.0272 -0.8557 3.5537 4.2851 -12.5304 -37.6353 0.0000 0.0000 0.0000 30.3620 7.5591 -63.7909 -11.4146 -18.1321 64.1209 -2.3722 -3.1411 -30.3554 -0.6213 -5.0442 14.0348 -11.5296 -0.3740 22.5322 -3.3483 -1.4738 10.4581 3.2186 -0.4727 -0.6563 -17.7618 -8.9100 -0.5689 27.7424 -6.7272 -27.7249 13.1465 -3.2030 -5.9328 -0.0000 -0.0000 0.0000 -75.0125 -34.1119 24.2682 71.4442 -58.6582 -44.0026 -0.0000 0.0000 -19.2190 15.1858 27.7290 7.1979 -7.1250 0.0000 -0.0000 -16.9355 57.7442 -5.3857 -0.0000 -0.0000 0.0000 75.1201 12.6816 15.9791 -26.2616 37.4659 -9.0463 0.0000 -0.0000 -23.9771 -37.8127 25.4575 -18.4472 7.1250 -0.0000 -0.0000 -4.8064 0.9964 -4.9065
-13.3784 13.7421 -4.3557 -207.6940 62.0793 -181.0520 0.0000 0.0000 0.0000 -17.5491 7.8650 -4.6504 14.3301 19.2111 73.2100 0.0117 1.2769 1.9905 4.3255 -12.5813 -37.8209 0.0000 0.0000 0.0000 30.7130 7.6019 -62.3411 -11.7591 -18.2869 65.2232 -2.4630 -4.7358 -31.6154 -0.5280 -4.6565 12.9315 -10.6941 -0.1417 22.3146 -3.2566 -1.0469 10.3092 2.7625 -0.2461 -0.8236 -17.9945 -9.3288 -0.2507 27.9607 -7.3292 -28.1041 13.2893 -3.5147 -5.9207 0.0000 0.0000 0.0000 -75.2316 -33.0973 24.5996 79.0015 -59.5379 -50.4898 -0.0000 0.0000 -22.5109 10.1419 29.8934 5.0946 -7.1250 0.0000 -0.0000 -23.6477 58.6653 -8.1916 0.0000 0.0000 0.0000 75.1231 12.9492 15.7022 -26.5787 37.7744 -9.2399 0.0000 -0.0000 -24.6243 -36.8915 25.0410 -17.6250 7.1250 -0.0000 -0.0000 -4.3544 0.2338 -4.3847
-12.9795 13.7035 -4.5306 -206.2870 62.3509 -179.9270 0.0000 0.0000 0.0000 -15.8556 7.6284 -8.1724 16.6697 19.7320 80.2211 -0.0206 3.0023 0.6039 3.8677 -11.9822 -35.6691 0.0000 0.0000 0.0000 31.6013 7.3841 -60.6559 -12.0537 -18.4132 66.1588 -2.5294 -6.3449 -32.7978 -0.3543 -3.8244 10.5831 -9.2903 0.2062 22.3058 -3.3439 -0.3759 10.2131 1.7403 0.1299 -1.0721 -17.5841 -9.8068 0.3260 28.2023 -7.9665 -28.6262 13.3474 -3.9209 -6.0262 0.0000 -0.0000 0.0000 -75.2942 -32.0477 25.1674 88.1625 -59.9872 -58.4087 -0.0000 0.0000 -27.6413 9.8070 32.7065 5.3360 -7.1250 0.0000 -0.0000 -26.3843 61.1067 -10.7759 0.0000 -0.0000 0.0000 75.7086 12.9799 14.9651 -27.2049 38.3739 -9.6261 0.0000 -0.0000 -25.0391 -36.5029 24.6604 -17.1593 7.1250 -0.0000 -0.0000 -4.2028 -0.3171 -4.1908
